<svg width="16" height="16" viewBox="0 0 16 16" fill="none" xmlns="http://www.w3.org/2000/svg">
<g clip-path="url(#clip0_2055_1626)">
<path d="M5.67969 -0.0996094C5.86666 -0.0995896 6.03177 -0.0287798 6.16016 0.0996094L13.4902 7.42969C13.6192 7.55873 13.6895 7.73414 13.6895 7.91016C13.6894 8.08619 13.6193 8.26161 13.4902 8.39062L6.16016 15.7207C6.04289 15.8379 5.88709 15.9035 5.72754 15.915C5.71305 15.9232 5.69751 15.9297 5.67969 15.9297C5.5065 15.9297 5.31738 15.8618 5.19531 15.7275C5.06871 15.5989 5 15.4243 5 15.25C5 15.0739 5.07016 14.8986 5.19922 14.7695L12.0488 7.91895L5.19922 1.06055C5.07018 0.931508 5.00002 0.75614 5 0.580078C5 0.40399 5.07016 0.228667 5.19922 0.0996094C5.32763 -0.0287977 5.49268 -0.0996094 5.67969 -0.0996094Z" fill="black"/>
</g>
<defs>
<clipPath id="clip0_2055_1626">
<rect width="16" height="16" fill="white"/>
</clipPath>
</defs>
</svg>
