<svg width="32" height="32" viewBox="0 0 32 32" fill="none" xmlns="http://www.w3.org/2000/svg">
<path d="M13.1618 9.13965C13.3584 9.13977 13.546 9.21501 13.697 9.35645L13.8298 9.47559C14.5401 10.0798 15.9477 10.7549 18.7302 10.8301H19.2917C21.8288 10.8301 23.7662 11.2405 24.8932 12.0215L25.0671 12.1475C25.2129 12.2601 25.3416 12.3814 25.4548 12.5088C25.4573 12.5956 25.4616 12.6825 25.4616 12.7695V15.1201C25.4616 15.4318 25.6288 15.7066 25.8776 15.8604C25.7843 17.0641 25.5447 18.7221 24.9841 20.748C24.5904 20.8307 24.2919 21.1828 24.2917 21.5996C24.2917 21.8355 24.3873 22.0507 24.5417 22.208C24.115 23.5651 23.4696 25.5062 22.2917 27.1484C21.0397 28.8939 19.1907 30.2996 16.3708 30.3096H16.3591L16.3493 30.3154L16.3386 30.3193C13.5109 30.3052 11.661 28.9086 10.4098 27.1748C9.2127 25.5157 8.56652 23.5497 8.14031 22.1953C8.28255 22.0403 8.37167 21.8354 8.37176 21.6104C8.37176 21.2042 8.08727 20.8606 7.70867 20.7666C7.14698 18.7426 6.90618 17.0795 6.81219 15.8525C7.04588 15.6959 7.20086 15.43 7.20086 15.1299V12.543C7.29255 12.4999 7.39233 12.4741 7.49383 12.4697C9.43903 12.3894 10.8445 11.8975 11.6677 10.9932C12.0227 10.6077 12.2674 10.1816 12.4196 9.68457L12.4538 9.5918C12.5471 9.38408 12.7335 9.22646 12.9636 9.16895L12.9655 9.16797C13.0314 9.14918 13.0871 9.13965 13.1618 9.13965ZM13.4382 11.165C13.2602 11.4815 13.0424 11.7784 12.7956 12.0352L12.7946 12.0361C11.8157 13.114 10.3085 13.7609 8.30633 13.9502L8.26141 13.9541V14C8.26141 14.2631 8.25793 14.8169 8.32195 15.6172C8.0471 16.0457 7.9118 16.5721 7.9118 17.1904C7.91188 18.1435 8.17081 19.1333 8.79754 19.8857C8.90809 20.0184 9.0311 20.1426 9.16473 20.2588C9.25832 20.5999 9.3593 20.953 9.47332 21.3154L9.89031 22.6172C10.2741 23.7614 10.7837 25.054 11.5524 26.1582C12.5791 27.6329 14.0711 28.7752 16.3415 28.7803C18.6069 28.7802 20.0985 27.6333 21.1276 26.1514C22.1552 24.6716 22.7245 22.8537 23.1491 21.5049L23.2087 21.3154C23.3206 20.9594 23.4202 20.6128 23.5124 20.2783C23.6481 20.1623 23.7724 20.0376 23.8845 19.9043C24.5114 19.1579 24.7711 18.1683 24.7712 17.1904C24.7712 16.548 24.6313 16.0109 24.3493 15.5791C24.3904 14.9725 24.3942 14.4984 24.3845 14.1689C24.3793 13.9942 24.3709 13.8599 24.3639 13.7686C24.3605 13.723 24.3574 13.6881 24.3552 13.6641C24.354 13.652 24.3529 13.6421 24.3522 13.6357C24.3514 13.6276 24.3512 13.6277 24.3513 13.6299V13.6152L24.3434 13.6035C24.2883 13.5154 24.1722 13.4009 24.0095 13.2891C23.5813 12.9935 22.9364 12.7639 22.1325 12.6084C21.3274 12.4527 20.3583 12.3701 19.2809 12.3701H18.6725C16.4777 12.3102 14.7474 11.8912 13.5075 11.1475L13.4626 11.1211L13.4382 11.165ZM17.0973 18.5684C17.3921 19.3626 17.9354 20.0352 18.6315 20.4951V22.5996C18.6315 23.022 18.2834 23.3701 17.861 23.3701H14.7712V23.377C14.3719 23.3507 14.0516 23.0157 14.0514 22.6104C14.0514 22.1881 14.3987 21.84 14.821 21.8398H17.1423L17.1413 21.7891L17.0973 18.5684ZM25.1315 2.0498C25.5538 2.04992 25.9011 2.398 25.9011 2.82031C25.901 4.04908 25.5046 5.19799 24.7614 6.15918L24.737 6.19043L24.7624 6.22168C26.2548 8.05243 27.0816 10.4109 27.0817 12.8096V14.4863L27.1276 14.4902C27.9472 14.5495 28.5838 14.8449 29.0134 15.3525L29.1462 15.5205C29.7547 16.3714 29.5935 17.4056 29.4616 18.2627L29.4118 18.5928C29.2986 19.385 28.8073 20.3354 28.0524 21.0879C27.3359 21.802 26.3861 22.333 25.3044 22.3848L25.3268 22.3701H25.1618C24.9687 22.3701 24.7927 22.295 24.6569 22.1758C24.6774 22.1104 24.699 22.0467 24.7184 21.9844L24.779 21.8057C24.8826 21.4745 24.9756 21.15 25.0632 20.8359C25.0953 20.8318 25.1286 20.8301 25.1618 20.8301C25.915 20.8299 26.575 20.4256 27.0593 19.916C27.5429 19.4071 27.8587 18.785 27.9206 18.3369L27.9704 17.9971C28.0202 17.6633 28.0717 17.3316 28.0729 17.041C28.0741 16.7515 28.0264 16.4914 27.8698 16.3076C27.7459 16.1622 27.5549 16.058 27.3005 15.9902C27.046 15.9225 26.7238 15.8897 26.3317 15.8896C26.2061 15.8896 26.0883 15.8561 25.9831 15.8018C26.066 14.6849 26.0243 13.968 26.0016 13.7227C26.0608 13.5349 26.0497 13.3385 25.9772 13.1621C25.8804 12.9147 25.7383 12.6825 25.5534 12.4688C25.4819 10.3145 24.6483 8.25043 23.1882 6.62695C22.9161 6.32637 22.9265 5.85679 23.2165 5.57617C23.7734 5.01925 24.1485 4.31959 24.3005 3.5498L24.3122 3.48926L24.2507 3.49023L14.5612 3.5498C13.5921 3.54985 12.7403 4.1977 12.4772 5.12207L12.4323 5.31055C12.3748 5.59746 12.1517 5.82789 11.8698 5.90625L11.7458 5.93066C9.14054 6.16351 7.10149 8.40436 7.10125 11.0195V12.4824C7.00776 12.535 6.92323 12.6044 6.8532 12.6885C6.69365 12.88 6.62941 13.1344 6.67156 13.3779L6.67254 13.3789L6.70086 13.5332C6.67261 13.8022 6.61859 14.5813 6.7077 15.7959C6.59578 15.8598 6.46869 15.9003 6.33172 15.9004C5.93942 15.9004 5.61654 15.9322 5.36199 16C5.1078 16.0677 4.91754 16.1721 4.79363 16.3174C4.63682 16.5012 4.58924 16.7594 4.59051 17.0469C4.59182 17.3348 4.64229 17.6636 4.69207 17.9971L4.74188 18.3369L4.77703 18.5127C4.88616 18.9394 5.18291 19.4735 5.60711 19.9209C6.0926 20.4329 6.75307 20.8398 7.50164 20.8398C7.54483 20.8399 7.58726 20.8436 7.62859 20.8506C7.71608 21.1635 7.81041 21.4857 7.91375 21.8154L7.98406 22.0352L8.02606 22.167C7.88795 22.2973 7.70455 22.3798 7.50164 22.3799C6.34825 22.3799 5.33524 21.8277 4.58074 21.0732C3.82575 20.3183 3.33366 19.3656 3.22039 18.5732L3.17059 18.252C3.03003 17.3383 2.86638 16.2226 3.61883 15.3428C4.04823 14.8353 4.68549 14.5387 5.55731 14.4297L5.60223 14.4238L5.60125 14.3799L5.56121 11.04C5.56121 7.85444 7.93385 5.04487 11.07 4.49902L11.0993 4.49414L11.1091 4.46582C11.6021 3.03683 13.0024 2.0498 14.5514 2.0498H25.1315ZM24.9333 20.9385L24.6833 21.7754L24.6237 21.9541C24.6093 22.0003 24.5928 22.0479 24.5778 22.0957C24.4631 21.9611 24.3913 21.7886 24.3913 21.5996C24.3915 21.2492 24.631 20.9509 24.9538 20.8594C24.9465 20.8855 24.9407 20.9122 24.9333 20.9385ZM7.73895 20.8789C8.04644 20.9801 8.27117 21.2708 8.27117 21.6104C8.27109 21.7882 8.20616 21.9501 8.1032 22.0811L8.07879 22.0049L8.00945 21.7852C7.91246 21.4757 7.82189 21.1735 7.73895 20.8789ZM11.8718 14.3604C13.1821 14.3604 14.1468 14.5944 14.7829 15.0625C15.0469 15.2568 15.2542 15.4934 15.4079 15.7715C15.268 15.8112 15.132 15.8586 15.0016 15.9141C14.7896 16.0095 14.6293 16.1798 14.5446 16.3916C14.4605 16.6127 14.4595 16.8474 14.5554 17.0605C14.6921 17.3762 15.0058 17.5753 15.3415 17.5791L15.3513 17.5801C15.4641 17.5789 15.5774 17.5565 15.6911 17.5049C15.6995 17.5013 15.7088 17.4995 15.7175 17.4961C15.5615 19.4851 13.9009 21.0496 11.8718 21.0498C10.7118 21.0498 9.85817 20.7198 9.25359 20.2051C8.7328 18.2997 8.51424 16.7419 8.42449 15.6426C8.56631 15.4289 8.74449 15.2415 8.95965 15.0811C9.596 14.6066 10.5616 14.3604 11.8718 14.3604ZM20.8112 14.3604C22.1218 14.3604 23.0871 14.5942 23.7233 15.0625C23.9337 15.2173 24.1075 15.3996 24.2477 15.6074C24.246 15.6325 24.2457 15.658 24.2438 15.6836C24.1615 16.796 23.9424 18.3324 23.4235 20.2227C22.8193 20.7286 21.9684 21.0498 20.8112 21.0498C20.0448 21.0498 19.3315 20.8254 18.7311 20.4404V18.2354C19.1142 18.9968 19.9001 19.5195 20.8112 19.5195C21.7632 19.5195 22.3495 19.205 22.696 18.75C23.0403 18.2977 23.1412 17.7153 23.1413 17.1904C23.1413 16.9415 23.143 16.6062 22.8395 16.3398C22.54 16.0771 21.9534 15.8896 20.8112 15.8896C19.6691 15.8897 19.0824 16.0771 18.7829 16.3398C18.4795 16.6061 18.4811 16.9415 18.4811 17.1904C18.4812 17.29 18.4885 17.3881 18.5007 17.4844C18.3789 17.3517 18.218 17.2554 18.0358 17.2178C18.0706 17.1688 18.1029 17.1165 18.1276 17.0596C18.2117 16.8493 18.2227 16.605 18.1374 16.3916C18.0527 16.1799 17.8942 16.0095 17.6823 15.9141C17.5539 15.8549 17.4169 15.8066 17.2761 15.7666C17.4295 15.4904 17.6374 15.2558 17.9001 15.0625C18.5363 14.5944 19.5009 14.3604 20.8112 14.3604ZM17.9626 17.3066C18.2185 17.3409 18.4329 17.5048 18.5456 17.7275C18.5674 17.8198 18.5953 17.9094 18.6276 17.9971C18.6299 18.0211 18.6315 18.0457 18.6315 18.0703V20.375C17.8928 19.8686 17.3397 19.1125 17.0934 18.2275L17.0915 18.0703C17.0915 17.8828 17.1619 17.7113 17.2751 17.5771C17.2937 17.5781 17.3128 17.5801 17.3317 17.5801C17.5784 17.58 17.8025 17.4776 17.9626 17.3066ZM24.3376 15.7529C24.5594 16.1453 24.6716 16.623 24.6716 17.1904C24.6715 18.1523 24.416 19.1174 23.8083 19.8408C23.7311 19.9327 23.6472 20.0198 23.5583 20.1035C24.0413 18.3075 24.2537 16.8371 24.3376 15.7529ZM8.33758 15.7871C8.43158 16.8521 8.64306 18.3137 9.1159 20.0811C9.02985 19.9985 8.94967 19.9113 8.87469 19.8213C8.26688 19.0915 8.01149 18.1269 8.01141 17.1904C8.01141 16.6438 8.12042 16.176 8.33758 15.7871ZM11.8718 15.8896C10.7297 15.8896 10.143 16.0771 9.84344 16.3398C9.53982 16.6062 9.54168 16.9415 9.54168 17.1904C9.54174 17.7153 9.64259 18.2976 9.98699 18.75C10.3334 19.205 10.9198 19.5195 11.8718 19.5195C13.159 19.5193 14.2006 18.4777 14.2009 17.1904C14.2009 16.9415 14.2027 16.6062 13.8991 16.3398C13.5996 16.0772 13.0134 15.8897 11.8718 15.8896ZM16.9792 17.5039C17.0356 17.5321 17.0947 17.5515 17.1559 17.5635C17.0888 17.6565 17.0397 17.763 17.0134 17.8779C16.991 17.7536 16.9747 17.6272 16.9645 17.499C16.9693 17.501 16.9745 17.5019 16.9792 17.5039ZM15.4548 15.8613C15.6383 16.2324 15.7311 16.6743 15.7311 17.1904C15.7311 17.2563 15.7295 17.3217 15.7263 17.3867C15.701 17.3958 15.6759 17.404 15.652 17.4141C15.5512 17.4599 15.449 17.4788 15.3473 17.4795C15.0484 17.4779 14.7686 17.3003 14.6471 17.0205L14.6188 16.9482C14.5636 16.7811 14.5722 16.6015 14.6384 16.4277C14.7137 16.24 14.8542 16.0903 15.0417 16.0059L15.0407 16.0049C15.1734 15.9485 15.3121 15.9009 15.4548 15.8613ZM17.8239 17.3008C17.7005 17.4042 17.5465 17.4668 17.3776 17.4766C17.5014 17.3753 17.6549 17.309 17.8239 17.3008ZM17.2292 15.8564C17.3728 15.8961 17.5106 15.946 17.6403 16.0059C17.8282 16.0904 17.9693 16.2405 18.0446 16.4287C18.1192 16.6153 18.1107 16.8318 18.0348 17.0215C18.0058 17.0882 17.967 17.1481 17.9225 17.2021C17.9023 17.2007 17.8816 17.2002 17.861 17.2002C17.6135 17.2003 17.3891 17.3056 17.2302 17.4736C17.1559 17.4651 17.0875 17.4467 17.0241 17.415L17.0212 17.4141L16.9567 17.3906C16.9533 17.3243 16.9509 17.2576 16.9509 17.1904C16.9509 16.6722 17.0442 16.2284 17.2292 15.8564ZM16.3415 15.7402C16.612 15.7402 16.8784 15.7709 17.1296 15.8311C16.9434 16.2143 16.8513 16.6678 16.8513 17.1904C16.8513 17.2454 16.8529 17.3001 16.8552 17.3545C16.6973 17.3073 16.5221 17.2803 16.3415 17.2803C16.1637 17.2803 15.9859 17.3076 15.8268 17.3535C15.829 17.2994 15.8317 17.2451 15.8317 17.1904C15.8317 16.6698 15.7391 16.2183 15.5544 15.8359C15.8061 15.7743 16.0704 15.7402 16.3415 15.7402ZM25.5573 12.6318C25.6965 12.81 25.8065 12.999 25.8845 13.1982L25.8854 13.1992C25.9509 13.3585 25.96 13.5361 25.904 13.7041L25.9001 13.7139L25.9011 13.7246C25.9227 13.9541 25.9659 14.6515 25.8874 15.7461C25.6911 15.606 25.5613 15.3774 25.5612 15.1201V12.7695C25.5612 12.7236 25.558 12.6777 25.5573 12.6318ZM7.10125 15.1299C7.10125 15.3744 6.98247 15.591 6.80242 15.7324C6.71862 14.5434 6.77454 13.7863 6.80145 13.5352V13.5283L6.80047 13.5205L6.7702 13.3604C6.733 13.1446 6.78949 12.9199 6.92938 12.752C6.97919 12.6922 7.03756 12.6407 7.10125 12.5986V15.1299Z" fill="black"/>
</svg>
